<svg width="373" height="421" viewBox="0 0 373 421" fill="none" xmlns="http://www.w3.org/2000/svg">
<g filter="url(#filter0_d_2_392)">
<path d="M306.093 170.187L129.792 93.0197C122.973 90.035 115.026 93.1433 112.041 99.9622L34.8744 276.263C31.8898 283.082 34.9981 291.03 41.817 294.014L218.118 371.181C224.937 374.166 232.884 371.058 235.869 364.239L313.036 187.937C316.021 181.119 312.912 173.171 306.093 170.187Z" stroke="white" stroke-width="1.16291"/>
<rect x="134.177" y="125.065" width="220.568" height="220.568" rx="14.059" transform="rotate(23.639 134.177 125.065)" fill="#FB8500" stroke="white" stroke-width="2.32582"/>
<mask id="mask0_2_392" style="mask-type:alpha" maskUnits="userSpaceOnUse" x="48" y="128" width="285" height="285">
<rect x="133.886" y="125.065" width="220.568" height="220.568" rx="14.059" transform="rotate(23.639 133.886 125.065)" fill="#5454D4" stroke="white" stroke-width="2.32582"/>
</mask>
<g mask="url(#mask0_2_392)">
<path d="M50.4648 192.883C76.7272 207.419 137.102 227.77 168.5 192.883C207.749 149.274 284.21 157.995 319.097 168.752" stroke="white" stroke-width="0.581455"/>
<path d="M51.1622 209.225C78.2897 222.075 139.828 238.575 168.962 201.776C205.38 155.776 282.239 159.655 317.736 168.189" stroke="white" stroke-width="0.581455"/>
<path d="M47.8888 225.791C75.0163 238.641 136.555 255.141 165.689 218.341C202.107 172.342 278.966 176.221 314.463 184.754" stroke="white" stroke-width="0.581455"/>
<path d="M44.4005 242.653C71.528 255.503 133.067 272.003 162.201 235.203C198.618 189.204 275.478 193.083 310.974 201.616" stroke="white" stroke-width="0.581455"/>
<path d="M44.4005 242.653C71.528 255.503 133.067 272.003 162.201 235.203C198.618 189.204 275.478 193.083 310.974 201.616" stroke="white" stroke-width="0.581455"/>
<path d="M51.378 300.218C81.7298 312.864 150.681 328.895 183.67 291.851C224.906 245.547 311.153 248.832 350.933 257.095" stroke="white" stroke-width="0.581455"/>
<path d="M44.4005 326.142C74.7523 338.788 143.703 354.82 176.692 317.776C217.928 271.472 304.175 274.757 343.955 283.02" stroke="white" stroke-width="0.581455"/>
<path d="M45.5631 344.75C75.9149 357.396 144.866 373.427 177.855 336.384C219.091 290.08 305.338 293.365 345.118 301.627" stroke="white" stroke-width="0.581455"/>
<path d="M54.2848 363.356C84.6366 376.002 153.587 392.033 186.576 354.99C227.813 308.686 314.059 311.971 353.839 320.234" stroke="white" stroke-width="0.581455"/>
<path d="M68.8219 391.265C99.1737 403.911 168.125 419.943 201.114 382.899C242.35 336.595 328.597 339.88 368.376 348.143" stroke="white" stroke-width="0.581455"/>
<path d="M64.7511 282.774C91.8786 295.624 153.417 312.124 182.551 275.325C218.969 229.325 295.828 233.204 331.325 241.738" stroke="white" stroke-width="0.581455"/>
<path d="M40.9112 261.842C71.4465 274.476 140.819 290.48 174.028 253.423C215.538 207.102 302.319 210.353 342.343 218.6" stroke="white" stroke-width="0.581455"/>
</g>
</g>
<defs>
<filter id="filter0_d_2_392" x="29.1585" y="91.3037" width="307.788" height="328.972" filterUnits="userSpaceOnUse" color-interpolation-filters="sRGB">
<feFlood flood-opacity="0" result="BackgroundImageFix"/>
<feColorMatrix in="SourceAlpha" type="matrix" values="0 0 0 0 0 0 0 0 0 0 0 0 0 0 0 0 0 0 127 0" result="hardAlpha"/>
<feOffset dy="4"/>
<feGaussianBlur stdDeviation="2"/>
<feComposite in2="hardAlpha" operator="out"/>
<feColorMatrix type="matrix" values="0 0 0 0 0 0 0 0 0 0 0 0 0 0 0 0 0 0 0.25 0"/>
<feBlend mode="normal" in2="BackgroundImageFix" result="effect1_dropShadow_2_392"/>
<feBlend mode="normal" in="SourceGraphic" in2="effect1_dropShadow_2_392" result="shape"/>
</filter>
</defs>
</svg>
